# xmcd
#
# Track frame offsets:
#	150
#	5195
#	12125
#	24445
#	39320
#	52905
#	69445
#	82335
#	100540
#	117640
#	135295
#	154485
#	194835
#	215730
#	236785
#	258705
#	273675
#	292060
#	312075
#
# Disc length: 4430 seconds
#
# Revision: 1
# Processed by: cddbd v1.5.1PL2 Copyright (c) Steve Scherf et al.
# Submitted via: EasyCDDAExtractor 8.0.2.1
#
DISCID=20114c13
DTITLE=Alice Cooper - Merriville 28-12-97
DYEAR=1997
DGENRE=Hard Rock
TTITLE0=Intro
TTITLE1=Hello Hooray
TTITLE2=Sideshow
TTITLE3=Billion Dollar Babies
TTITLE4=No More Mr Nice Guy
TTITLE5=Public Animal 
TTITLE6=Be My Lover
TTITLE7=Lost In America
TTITLE8=Eighteen
TTITLE9=From The Inside
TTITLE10=Only Women Bleed
TTITLE11=Halo Of Flies
TTITLE12=Nothing's Free
TTITLE13=Cleansed By Fire
TTITLE14=Poison
TTITLE15=Cold Ethyl
TTITLE16=Unfinished Sweet
TTITLE17=School's Out
TTITLE18=Under My Wheels
EXTD=
EXTT0=
EXTT1=
EXTT2=
EXTT3=
EXTT4=
EXTT5=
EXTT6=
EXTT7=
EXTT8=
EXTT9=
EXTT10=
EXTT11=
EXTT12=
EXTT13=
EXTT14=
EXTT15=
EXTT16=
EXTT17=
EXTT18=
PLAYORDER=
